<svg width="33" height="30" viewBox="0 0 33 30" fill="none" xmlns="http://www.w3.org/2000/svg">
<path d="M26.125 6.25H23.375V3.75H9.625V6.25H6.875C5.3625 6.25 4.125 7.375 4.125 8.75V10C4.125 13.1875 6.765 15.7875 10.1612 16.175C11.0275 18.05 12.8837 19.4625 15.125 19.875V23.75H9.625V26.25H23.375V23.75H17.875V19.875C20.1163 19.4625 21.9725 18.05 22.8388 16.175C26.235 15.7875 28.875 13.1875 28.875 10V8.75C28.875 7.375 27.6375 6.25 26.125 6.25ZM6.875 10V8.75H9.625V13.525C8.03 13 6.875 11.625 6.875 10ZM26.125 10C26.125 11.625 24.97 13 23.375 13.525V8.75H26.125V10Z" fill="#FDB62A"/>
</svg>
