<svg width="513" height="59" viewBox="0 0 513 59" fill="none" xmlns="http://www.w3.org/2000/svg">
<path d="M0.554901 58L15.9471 50.4336H29.4153L45.7696 41.354H51.5417L60.1998 40.3451L66.9339 39.3363L69.82 35.3009L75.5921 37.823L80.4021 41.354L96.7564 43.3717L99.6424 46.3982L125.617 49.4248L129.465 43.3717H144.857V39.3363L152.553 37.823L162.173 35.3009L180.452 27.7345L191.034 26.2212L201.616 24.708L210.274 27.7345L218.932 34.292L230.476 41.354L247.793 43.3717L265.109 41.354L276.653 37.823H291.083L296.855 39.3363L308.4 37.823L316.096 34.292H326.678L332.45 29.2478L343.032 27.7345L348.804 29.2478L354.576 30.2566L358.424 28.2389L366.121 26.7257L369.969 28.2389L395.943 29.2478L413.259 18.6549H418.069H429.614L447.892 12.0973H460.398L470.018 9.0708H484.448L492.144 4.53097H501.765L512.347 1" stroke="url(#paint0_linear)"/>
<defs>
<linearGradient id="paint0_linear" x1="114.073" y1="46.9027" x2="474.171" y2="-34.5177" gradientUnits="userSpaceOnUse">
<stop stop-color="#9644BD"/>
<stop offset="1" stop-color="#2351F3"/>
</linearGradient>
</defs>
</svg>
