<svg width="24" height="24" viewBox="0 0 24 24" fill="none" xmlns="http://www.w3.org/2000/svg">
<path d="M23 12L20.56 9.21L20.9 5.52L17.29 4.7L15.4 1.5L12 2.96L8.6 1.5L6.71 4.69L3.1 5.5L3.44 9.2L1 12L3.44 14.79L3.1 18.49L6.71 19.31L8.6 22.5L12 21.03L15.4 22.49L17.29 19.3L20.9 18.48L20.56 14.79L23 12ZM9.5 5.5L6.29 12.91L7.77 11.43L10.09 13.76L15.94 7.89L17.29 7L9.5 5.5Z" fill="#D67630"/>
<path d="M20.25 12L18.42 9.9075L18.675 7.14L15.9675 6.525L14.55 4.125L12 5.22L9.45 4.125L8.0325 6.5175L5.325 7.125L5.58 9.9L3.75 12L5.58 14.0925L5.325 16.8675L8.0325 17.4825L9.45 19.875L12 18.7725L14.55 19.8675L15.9675 17.475L18.675 16.86L18.42 14.0925L20.25 12ZM10.125 7.125L7.7175 12.6825L8.8275 11.5725L10.5675 13.32L14.955 8.9175L15.9675 8.25L10.125 7.125Z" fill="#F4A164"/>
<path d="M8.78 9.967H9.937C10.054 9.057 10.717 8.433 11.822 8.433C12.953 8.433 13.551 9.057 13.551 9.954C13.551 11.046 12.706 11.527 11.133 11.54H10.821V12.528H11.12C12.81 12.528 13.733 13.035 13.733 14.361C13.733 15.323 13.135 16.064 11.874 16.064C10.626 16.064 9.898 15.297 9.781 14.296H8.637C8.78 16.116 10.106 17.065 11.887 17.065C13.85 17.065 14.864 15.921 14.864 14.465C14.864 13.113 14.123 12.307 13.031 12.047V11.982C14.019 11.761 14.695 10.916 14.695 9.837C14.695 8.485 13.694 7.419 11.861 7.419C10.119 7.419 8.897 8.355 8.78 9.967Z" fill="#181818" fill-opacity="0.97"/>
</svg>
