<svg width="24" height="24" viewBox="0 0 24 24" fill="none" xmlns="http://www.w3.org/2000/svg">
<path d="M23 12L20.56 9.21L20.9 5.52L17.29 4.7L15.4 1.5L12 2.96L8.6 1.5L6.71 4.69L3.1 5.5L3.44 9.2L1 12L3.44 14.79L3.1 18.49L6.71 19.31L8.6 22.5L12 21.03L15.4 22.49L17.29 19.3L20.9 18.48L20.56 14.79L23 12ZM9.5 5.5L6.29 12.91L7.77 11.43L10.09 13.76L15.94 7.89L17.29 7L9.5 5.5Z" fill="#DBDBDB"/>
<path d="M20.25 12L18.42 9.9075L18.675 7.14L15.9675 6.525L14.55 4.125L12 5.22L9.45 4.125L8.0325 6.5175L5.325 7.125L5.58 9.9L3.75 12L5.58 14.0925L5.325 16.8675L8.0325 17.4825L9.45 19.875L12 18.7725L14.55 19.8675L15.9675 17.475L18.675 16.86L18.42 14.0925L20.25 12ZM10.125 7.125L7.7175 12.6825L8.8275 11.5725L10.5675 13.32L14.955 8.9175L15.9675 8.25L10.125 7.125Z" fill="#AEAEAE"/>
<path d="M8.663 16.896H14.916V15.908H10.444C12.121 14.543 14.643 12.554 14.643 10.214C14.643 8.472 13.499 7.432 11.731 7.432C10.041 7.432 8.78 8.472 8.702 10.474H9.846C9.898 9.291 10.522 8.446 11.744 8.446C13.018 8.446 13.473 9.226 13.473 10.266C13.473 12.19 11.133 14.062 8.663 16.051V16.896Z" fill="#181818" fill-opacity="0.97"/>
</svg>
