<svg width="18" height="18" viewBox="0 0 18 18" fill="none" xmlns="http://www.w3.org/2000/svg">
<path d="M11.25 0.75H6.75V2.25H11.25V0.75ZM8.25 10.5H9.75V6H8.25V10.5ZM14.2725 5.5425L15.3375 4.4775C15.015 4.095 14.6625 3.735 14.28 3.42L13.215 4.485C12.0525 3.555 10.59 3 9 3C5.2725 3 2.25 6.0225 2.25 9.75C2.25 13.4775 5.265 16.5 9 16.5C12.735 16.5 15.75 13.4775 15.75 9.75C15.75 8.16 15.195 6.6975 14.2725 5.5425ZM9 15C6.0975 15 3.75 12.6525 3.75 9.75C3.75 6.8475 6.0975 4.5 9 4.5C11.9025 4.5 14.25 6.8475 14.25 9.75C14.25 12.6525 11.9025 15 9 15Z" fill="white"/>
</svg>
